<svg width="16" height="17" viewBox="0 0 16 17" fill="none" xmlns="http://www.w3.org/2000/svg">
<path fill-rule="evenodd" clip-rule="evenodd" d="M12 7.00598C12 10.0435 9.53757 12.506 6.5 12.506C3.46243 12.506 1 10.0435 1 7.00598C1 3.96842 3.46243 1.50598 6.5 1.50598C9.53757 1.50598 12 3.96842 12 7.00598ZM10.7291 11.9422C9.59234 12.917 8.11495 13.506 6.5 13.506C2.91015 13.506 0 10.5958 0 7.00598C0 3.41613 2.91015 0.505981 6.5 0.505981C10.0899 0.505981 13 3.41613 13 7.00598C13 8.62093 12.411 10.0983 11.4362 11.2351L15.8536 15.6524L15.1464 16.3595L10.7291 11.9422Z" fill="black" fill-opacity="0.8"/>
</svg>
