<svg width="248" height="90" viewBox="0 0 248 90" fill="none" xmlns="http://www.w3.org/2000/svg">
<path d="M84.2329 65.4236C83.9769 65.4236 83.6889 65.3596 83.3689 65.2316C82.2809 64.7516 81.9769 63.9836 82.4569 62.9276L97.9609 28.7516C98.4409 27.7276 99.2089 27.4396 100.265 27.8876C101.353 28.3356 101.657 29.0876 101.177 30.1436L85.6249 64.3196C85.3049 65.0556 84.8409 65.4236 84.2329 65.4236ZM89.5609 53.1836C89.0809 53.4076 88.6329 53.4556 88.2169 53.3276C87.8009 53.1676 87.4649 52.8476 87.2089 52.3676L76.5049 30.1916C76.2809 29.7116 76.2489 29.2636 76.4089 28.8476C76.5689 28.4316 76.8889 28.1116 77.3689 27.8876C77.8489 27.6636 78.2969 27.6316 78.7129 27.7916C79.1289 27.9196 79.4489 28.2236 79.6729 28.7036L90.1849 50.8796C90.4409 51.3596 90.5209 51.8076 90.4249 52.2236C90.3289 52.6396 90.0409 52.9596 89.5609 53.1836ZM115.928 54.2396C113.464 54.2396 111.256 53.6636 109.304 52.5116C107.352 51.3276 105.8 49.7276 104.648 47.7116C103.528 45.6956 102.968 43.4236 102.968 40.8956C102.968 38.3356 103.544 36.0476 104.696 34.0316C105.88 32.0156 107.48 30.4316 109.496 29.2796C111.512 28.0956 113.784 27.5036 116.312 27.5036C118.84 27.5036 121.096 28.0956 123.08 29.2796C125.096 30.4316 126.68 32.0156 127.832 34.0316C129.016 36.0476 129.624 38.3356 129.656 40.8956L128.168 42.0476C128.168 44.3516 127.624 46.4316 126.536 48.2876C125.48 50.1116 124.024 51.5676 122.168 52.6556C120.344 53.7116 118.264 54.2396 115.928 54.2396ZM116.312 50.8796C118.168 50.8796 119.816 50.4476 121.256 49.5836C122.728 48.7196 123.88 47.5356 124.712 46.0316C125.576 44.4956 126.008 42.7836 126.008 40.8956C126.008 38.9756 125.576 37.2636 124.712 35.7596C123.88 34.2556 122.728 33.0716 121.256 32.2076C119.816 31.3116 118.168 30.8636 116.312 30.8636C114.488 30.8636 112.84 31.3116 111.368 32.2076C109.896 33.0716 108.728 34.2556 107.864 35.7596C107 37.2636 106.568 38.9756 106.568 40.8956C106.568 42.7836 107 44.4956 107.864 46.0316C108.728 47.5356 109.896 48.7196 111.368 49.5836C112.84 50.4476 114.488 50.8796 116.312 50.8796ZM127.784 53.9996C127.24 53.9996 126.792 53.8396 126.44 53.5196C126.088 53.1676 125.912 52.7196 125.912 52.1756V43.9676L126.824 40.1756L129.656 40.8956V52.1756C129.656 52.7196 129.48 53.1676 129.128 53.5196C128.776 53.8396 128.328 53.9996 127.784 53.9996ZM171.597 53.9996C171.053 53.9996 170.605 53.8396 170.253 53.5196C169.901 53.1676 169.725 52.7196 169.725 52.1756V38.3516C169.725 36.0796 169.133 34.2876 167.949 32.9756C166.765 31.6316 165.245 30.9596 163.389 30.9596C161.405 30.9596 159.773 31.6316 158.493 32.9756C157.245 34.2876 156.637 36.0476 156.669 38.2556H153.357C153.389 36.1116 153.853 34.2236 154.749 32.5916C155.645 30.9596 156.877 29.6956 158.445 28.7996C160.013 27.9036 161.789 27.4556 163.773 27.4556C165.661 27.4556 167.325 27.9036 168.765 28.7996C170.237 29.6956 171.373 30.9596 172.173 32.5916C173.005 34.2236 173.421 36.1436 173.421 38.3516V52.1756C173.421 52.7196 173.245 53.1676 172.893 53.5196C172.573 53.8396 172.141 53.9996 171.597 53.9996ZM137.997 53.9996C137.421 53.9996 136.957 53.8396 136.605 53.5196C136.285 53.1676 136.125 52.7196 136.125 52.1756V29.6156C136.125 29.0716 136.285 28.6236 136.605 28.2716C136.957 27.9196 137.421 27.7436 137.997 27.7436C138.541 27.7436 138.973 27.9196 139.293 28.2716C139.645 28.6236 139.821 29.0716 139.821 29.6156V52.1756C139.821 52.7196 139.645 53.1676 139.293 53.5196C138.973 53.8396 138.541 53.9996 137.997 53.9996ZM154.845 53.9996C154.301 53.9996 153.853 53.8396 153.501 53.5196C153.149 53.1676 152.973 52.7196 152.973 52.1756V38.3516C152.973 36.0796 152.381 34.2876 151.197 32.9756C150.013 31.6316 148.493 30.9596 146.637 30.9596C144.653 30.9596 143.021 31.6156 141.741 32.9276C140.461 34.2076 139.821 35.8876 139.821 37.9676H137.181C137.245 35.9196 137.693 34.1116 138.525 32.5436C139.389 30.9436 140.557 29.6956 142.029 28.7996C143.501 27.9036 145.165 27.4556 147.021 27.4556C148.909 27.4556 150.573 27.9036 152.013 28.7996C153.485 29.6956 154.621 30.9596 155.421 32.5916C156.253 34.2236 156.669 36.1436 156.669 38.3516V52.1756C156.669 52.7196 156.493 53.1676 156.141 53.5196C155.821 53.8396 155.389 53.9996 154.845 53.9996ZM216.345 53.9996C215.801 53.9996 215.353 53.8396 215.001 53.5196C214.649 53.1676 214.473 52.7196 214.473 52.1756V38.3516C214.473 36.0796 213.881 34.2876 212.697 32.9756C211.513 31.6316 209.993 30.9596 208.137 30.9596C206.153 30.9596 204.521 31.6316 203.241 32.9756C201.993 34.2876 201.385 36.0476 201.417 38.2556H198.105C198.137 36.1116 198.601 34.2236 199.497 32.5916C200.393 30.9596 201.625 29.6956 203.193 28.7996C204.761 27.9036 206.537 27.4556 208.521 27.4556C210.409 27.4556 212.073 27.9036 213.513 28.7996C214.985 29.6956 216.121 30.9596 216.921 32.5916C217.753 34.2236 218.169 36.1436 218.169 38.3516V52.1756C218.169 52.7196 217.993 53.1676 217.641 53.5196C217.321 53.8396 216.889 53.9996 216.345 53.9996ZM182.745 53.9996C182.169 53.9996 181.705 53.8396 181.353 53.5196C181.033 53.1676 180.873 52.7196 180.873 52.1756V29.6156C180.873 29.0716 181.033 28.6236 181.353 28.2716C181.705 27.9196 182.169 27.7436 182.745 27.7436C183.289 27.7436 183.721 27.9196 184.041 28.2716C184.393 28.6236 184.569 29.0716 184.569 29.6156V52.1756C184.569 52.7196 184.393 53.1676 184.041 53.5196C183.721 53.8396 183.289 53.9996 182.745 53.9996ZM199.593 53.9996C199.049 53.9996 198.601 53.8396 198.249 53.5196C197.897 53.1676 197.721 52.7196 197.721 52.1756V38.3516C197.721 36.0796 197.129 34.2876 195.945 32.9756C194.761 31.6316 193.241 30.9596 191.385 30.9596C189.401 30.9596 187.769 31.6156 186.489 32.9276C185.209 34.2076 184.569 35.8876 184.569 37.9676H181.929C181.993 35.9196 182.441 34.1116 183.273 32.5436C184.137 30.9436 185.305 29.6956 186.777 28.7996C188.249 27.9036 189.913 27.4556 191.769 27.4556C193.657 27.4556 195.321 27.9036 196.761 28.7996C198.233 29.6956 199.369 30.9596 200.169 32.5916C201.001 34.2236 201.417 36.1436 201.417 38.3516V52.1756C201.417 52.7196 201.241 53.1676 200.889 53.5196C200.569 53.8396 200.137 53.9996 199.593 53.9996ZM230.134 65.4236C229.878 65.4236 229.59 65.3596 229.27 65.2316C228.182 64.7516 227.878 63.9836 228.358 62.9276L243.862 28.7516C244.342 27.7276 245.11 27.4396 246.166 27.8876C247.254 28.3356 247.558 29.0876 247.078 30.1436L231.526 64.3196C231.206 65.0556 230.742 65.4236 230.134 65.4236ZM235.462 53.1836C234.982 53.4076 234.534 53.4556 234.118 53.3276C233.702 53.1676 233.366 52.8476 233.11 52.3676L222.406 30.1916C222.182 29.7116 222.15 29.2636 222.31 28.8476C222.47 28.4316 222.79 28.1116 223.27 27.8876C223.75 27.6636 224.198 27.6316 224.614 27.7916C225.03 27.9196 225.35 28.2236 225.574 28.7036L236.086 50.8796C236.342 51.3596 236.422 51.8076 236.326 52.2236C236.23 52.6396 235.942 52.9596 235.462 53.1836Z" fill="#FFBE0B"/>
<path fill-rule="evenodd" clip-rule="evenodd" d="M47.0769 37.7319L67.209 20.1318L66.1429 36.0191L46.0107 53.6192L46.0107 53.6192L28.4106 33.4871L29.4767 17.5998L47.0769 37.7319Z" fill="url(#paint0_linear_0_119)"/>
<path d="M55.0818 45.5046L34.8834 63.0287L19.0003 61.9027L39.1986 44.3786L55.0818 45.5046Z" fill="#2B2E4A"/>
<path fill-rule="evenodd" clip-rule="evenodd" d="M28.4106 33.4871L46.0107 53.6192L47.0769 37.7319L46.0107 53.6192L66.1429 36.0191L67.209 20.1318L47.0769 37.7319L29.4767 17.5998L28.4106 33.4871Z" fill="url(#paint1_linear_0_119)"/>
<defs>
<linearGradient id="paint0_linear_0_119" x1="28.4106" y1="33.4871" x2="67.209" y2="20.1318" gradientUnits="userSpaceOnUse">
<stop stop-color="#FFBE0B"/>
<stop offset="1" stop-color="#FF4D00"/>
</linearGradient>
<linearGradient id="paint1_linear_0_119" x1="40.0787" y1="23.0924" x2="62.564" y2="11.3867" gradientUnits="userSpaceOnUse">
<stop stop-color="#FFBE0B"/>
<stop offset="1" stop-color="#FF4D00"/>
</linearGradient>
</defs>
</svg>
