<svg width="18" height="17" viewBox="0 0 18 17" fill="none" xmlns="http://www.w3.org/2000/svg">
<path fill-rule="evenodd" clip-rule="evenodd" d="M3.92701 12.0326L3.6897 11.5401C3.24801 10.6234 3 9.59506 3 8.50598C3 4.63999 6.13401 1.50598 10 1.50598C13.866 1.50598 17 4.63999 17 8.50598C17 12.372 13.866 15.506 10 15.506C8.89526 15.506 7.85296 15.2508 6.92628 14.797L6.65842 14.6659L6.36249 14.7029L1.94388 15.2552L3.64047 12.4983L3.92701 12.0326ZM0.671856 15.4142L0 16.506L1.27203 16.347L6.48652 15.6952C7.5471 16.2145 8.73951 16.506 10 16.506C14.4183 16.506 18 12.9243 18 8.50598C18 4.0877 14.4183 0.505981 10 0.505981C5.58172 0.505981 2 4.0877 2 8.50598C2 9.74856 2.28329 10.925 2.78881 11.9742L0.671856 15.4142Z" fill="black" fill-opacity="0.8"/>
</svg>
